<svg xmlns="http://www.w3.org/2000/svg" viewBox="0 0 750 500"><g id="freepik--Stars--inject-102"><path d="M579.76,183.21l1,.65a.19.19,0,0,1,0,.34l-1.06.51a.16.16,0,0,0-.08.08l-.6,1a.2.2,0,0,1-.35,0l-.55-1.09a.2.2,0,0,0-.08-.08l-1-.65a.19.19,0,0,1,0-.34l1.07-.51a.2.2,0,0,0,.08-.08l.6-1a.19.19,0,0,1,.34,0l.56,1.09A.18.18,0,0,0,579.76,183.21Z" style="fill:#0369A1"></path><path d="M580.58,334.37l1,.65a.19.19,0,0,1,0,.34l-1.06.51a.15.15,0,0,0-.08.08l-.6,1a.2.2,0,0,1-.35,0l-.55-1.09a.3.3,0,0,0-.08-.08l-1-.64a.2.2,0,0,1,0-.35l1.07-.51a.27.27,0,0,0,.08-.07l.59-1a.2.2,0,0,1,.35,0l.55,1.09A.3.3,0,0,0,580.58,334.37Z" style="fill:#0369A1"></path><path d="M622.11,265.1l2,1.2a.39.39,0,0,1,0,.68L622,268.05a.41.41,0,0,0-.17.15l-1.24,2a.39.39,0,0,1-.68,0l-1-2.1a.36.36,0,0,0-.14-.16l-2-1.2a.39.39,0,0,1,0-.68l2.14-1.07a.33.33,0,0,0,.16-.15l1.25-2a.39.39,0,0,1,.68,0l1,2.11A.31.31,0,0,0,622.11,265.1Z" style="fill:#0369A1"></path><path d="M568.6,194.53l2,1.25a.38.38,0,0,1,0,.67l-2.07,1a.46.46,0,0,0-.16.15l-1.16,2a.39.39,0,0,1-.68,0l-1.07-2.13a.46.46,0,0,0-.15-.16l-2-1.25a.39.39,0,0,1,0-.68l2.08-1a.34.34,0,0,0,.15-.14l1.17-2a.38.38,0,0,1,.67,0l1.08,2.12A.39.39,0,0,0,568.6,194.53Z" style="fill:#0369A1"></path><path d="M93.52,253.35l1.53,1a.29.29,0,0,1,0,.51l-1.59.74a.25.25,0,0,0-.12.11l-.91,1.49a.29.29,0,0,1-.51,0l-.79-1.62a.37.37,0,0,0-.12-.13l-1.52-1a.3.3,0,0,1,0-.52l1.58-.73a.22.22,0,0,0,.12-.11l.91-1.49a.29.29,0,0,1,.51,0l.8,1.62A.35.35,0,0,0,93.52,253.35Z" style="fill:#0369A1"></path><path d="M126.64,288l1.48.85a.27.27,0,0,1,0,.48l-1.46.76a.29.29,0,0,0-.11.11l-.78,1.44a.28.28,0,0,1-.49,0l-.82-1.49a.25.25,0,0,0-.11-.12l-1.47-.84a.27.27,0,0,1,0-.48l1.46-.76a.38.38,0,0,0,.11-.11l.78-1.44a.27.27,0,0,1,.48,0l.82,1.49A.29.29,0,0,0,126.64,288Z" style="fill:#0369A1"></path><path d="M170.94,173.31l1.48.85a.28.28,0,0,1,0,.48l-1.46.76a.22.22,0,0,0-.11.1l-.79,1.45a.27.27,0,0,1-.48,0l-.82-1.5a.29.29,0,0,0-.11-.11l-1.48-.84a.28.28,0,0,1,0-.49l1.46-.76a.24.24,0,0,0,.1-.1l.79-1.45a.27.27,0,0,1,.48,0l.82,1.49A.57.57,0,0,0,170.94,173.31Z" style="fill:#0369A1"></path><path d="M285.88,149l1.48.85a.27.27,0,0,1,0,.48l-1.46.76a.2.2,0,0,0-.11.11l-.79,1.44a.27.27,0,0,1-.48,0l-.82-1.49a.25.25,0,0,0-.11-.12l-1.48-.84a.27.27,0,0,1,0-.48l1.46-.76a.38.38,0,0,0,.11-.11l.78-1.45a.28.28,0,0,1,.48,0l.82,1.49A.29.29,0,0,0,285.88,149Z" style="fill:#0369A1"></path><path d="M115.84,293.52l2.93,1.68a.55.55,0,0,1,0,1l-2.89,1.51a.5.5,0,0,0-.22.21l-1.56,2.87a.54.54,0,0,1-1,0l-1.63-3a.61.61,0,0,0-.22-.23l-2.94-1.68a.54.54,0,0,1,0-1l2.9-1.51a.53.53,0,0,0,.21-.21l1.56-2.87a.55.55,0,0,1,1,0l1.63,3A.58.58,0,0,0,115.84,293.52Z" style="fill:#0369A1"></path><path d="M306.61,133.66l2.93,1.68a.54.54,0,0,1,0,.95l-2.89,1.51a.56.56,0,0,0-.22.21l-1.56,2.87a.54.54,0,0,1-.95,0l-1.63-3a.58.58,0,0,0-.22-.22L299.14,136a.55.55,0,0,1,0-1l2.9-1.51a.47.47,0,0,0,.21-.21l1.56-2.87a.55.55,0,0,1,1,0l1.63,3A.61.61,0,0,0,306.61,133.66Z" style="fill:#0369A1"></path><path d="M264.68,419l2.93,1.68a.54.54,0,0,1,0,.95l-2.9,1.51a.47.47,0,0,0-.21.21L263,426.22a.55.55,0,0,1-1,0l-1.63-3a.58.58,0,0,0-.22-.22l-2.93-1.68a.55.55,0,0,1,0-1l2.9-1.51a.5.5,0,0,0,.22-.21l1.56-2.87a.54.54,0,0,1,.95,0l1.63,3A.61.61,0,0,0,264.68,419Z" style="fill:#0369A1"></path><path d="M537.67,366.86l2.93,1.68a.55.55,0,0,1,0,1L537.72,371a.56.56,0,0,0-.22.21l-1.56,2.87a.54.54,0,0,1-1,0l-1.63-3a.58.58,0,0,0-.22-.22l-2.94-1.68a.55.55,0,0,1,0-1l2.9-1.51a.47.47,0,0,0,.21-.21l1.56-2.87a.55.55,0,0,1,1,0l1.63,3A.52.52,0,0,0,537.67,366.86Z" style="fill:#0369A1"></path><path d="M497.32,149.69l1.91,1.1a.35.35,0,0,1,0,.62l-1.89,1a.38.38,0,0,0-.14.14l-1,1.87a.36.36,0,0,1-.63,0l-1.06-1.93a.32.32,0,0,0-.14-.14l-1.91-1.1a.35.35,0,0,1,0-.62l1.89-1a.32.32,0,0,0,.14-.14l1-1.87a.36.36,0,0,1,.63,0l1.06,1.93A.32.32,0,0,0,497.32,149.69Z" style="fill:#0369A1"></path></g><g id="freepik--portal-4--inject-102"><ellipse cx="566.96" cy="410.96" rx="42.83" ry="27.51" transform="translate(-127.9 497.57) rotate(-43.04)" style="fill:#263238"></ellipse><path d="M580.15,424.85c-15.73,14.74-35.76,19.47-47.06,11.8a17.49,17.49,0,0,0,2.61,3.57c10.4,11.08,32.83,6.95,50.1-9.21s22.83-38.25,12.43-49.32a17.75,17.75,0,0,0-3-2.58C601.78,390.9,595.72,410.28,580.15,424.85Z" style="fill:#455a64"></path></g><g id="freepik--portal-3--inject-102"><ellipse cx="282.34" cy="92.59" rx="22.72" ry="11.58" transform="translate(-14.76 87.73) rotate(-17.22)" style="fill:#263238"></ellipse><path d="M279.53,85c10.87-3.52,21.35-2.38,24.78,2.4a6.13,6.13,0,0,0-.36-1.83c-2.19-6-13.64-7.76-25.58-3.89s-19.83,11.88-17.64,17.89a6.55,6.55,0,0,0,.8,1.5C261.29,95.36,268.77,88.51,279.53,85Z" style="fill:#455a64"></path></g><g id="freepik--portal-2--inject-102"><ellipse cx="415.51" cy="136.24" rx="22.03" ry="57.53" transform="translate(217.53 526.13) rotate(-81.23)" style="fill:#263238"></ellipse><path d="M419.34,121.31c28.53,4.86,50,16.84,51.21,27.88a9.65,9.65,0,0,0,1.63-3.29c3.14-11.82-19.68-25.73-51-31.06s-59.22-.08-62.37,11.74a9,9,0,0,0-.23,3.18C365.65,120.31,391.12,116.5,419.34,121.31Z" style="fill:#455a64"></path><path d="M413.08,134.36c7.17,3.75,12,10.83,18.63,15.45,4.4,3.05,9.74,5.16,12.7,9.62-.29-2.61-2.08-4.78-3.86-6.71a98.24,98.24,0,0,0-16.77-14.43c-3.14-2.13-6.62-4.15-10.41-4.13" style="fill:#455a64"></path><g style="opacity:0.2"><path d="M413.08,134.36c7.17,3.75,12,10.83,18.63,15.45,4.4,3.05,9.74,5.16,12.7,9.62-.29-2.61-2.08-4.78-3.86-6.71a98.24,98.24,0,0,0-16.77-14.43c-3.14-2.13-6.62-4.15-10.41-4.13"></path></g><path d="M447.2,37.58a5.6,5.6,0,0,0-1.13-3.25c-1.08-1.19-2.89-1.31-4.49-1.19-6.82.51-15.5,10.62-19.67,16l.7,30.09C441.29,69.49,448.8,52,447.2,37.58Z" style="fill:#455a64"></path><g style="opacity:0.2"><path d="M447.2,37.58a5.6,5.6,0,0,0-1.13-3.25c-1.08-1.19-2.89-1.31-4.49-1.19-6.82.51-15.5,10.62-19.67,16l.7,30.09C441.29,69.49,448.8,52,447.2,37.58Z"></path></g><path d="M417.66,99.38a67.86,67.86,0,0,1,10.7-2.86c3.56-.58,7.13-2.07,10.64-2.9,4.54-1.06,8.78-3.11,13.14-4.79s9-3,13.65-2.48A24.74,24.74,0,0,0,454.62,84a74.63,74.63,0,0,0-11.44,1.21c-5.26.84-10.62,1.71-15.38,4.1s-9.15,4.83-10.14,10.07" style="fill:#455a64"></path><g style="opacity:0.2"><path d="M417.66,99.38a67.86,67.86,0,0,1,10.7-2.86c3.56-.58,7.13-2.07,10.64-2.9,4.54-1.06,8.78-3.11,13.14-4.79s9-3,13.65-2.48A24.74,24.74,0,0,0,454.62,84a74.63,74.63,0,0,0-11.44,1.21c-5.26.84-10.62,1.71-15.38,4.1s-9.15,4.83-10.14,10.07"></path></g><path d="M393.43,100.4c-4.61-6.76-13.85-8.73-21.8-10.7a194.26,194.26,0,0,1,29.65,31.94C403.12,116.14,399.27,109,393.43,100.4Z" style="fill:#455a64"></path><g style="opacity:0.2"><path d="M393.43,100.4c-4.61-6.76-13.85-8.73-21.8-10.7a194.26,194.26,0,0,1,29.65,31.94C403.12,116.14,399.27,109,393.43,100.4Z"></path></g><path d="M399.39,142.39c-9.51-2.75-17.35-13.61-26.73-16.67,10.82-.51,24.35,6,26.73,16.67" style="fill:#455a64"></path><g style="opacity:0.2"><path d="M399.39,142.39c-9.51-2.75-17.35-13.61-26.73-16.67,10.82-.51,24.35,6,26.73,16.67"></path></g><path d="M408.86,120.44a32.23,32.23,0,0,1,15.54,3.11,97.07,97.07,0,0,1,13.81,8.1c.41-3.44-1.6-6.66-3.52-9.55a41.26,41.26,0,0,0-4.74-6.23,13.77,13.77,0,0,0-6.62-4,11.73,11.73,0,0,0-9,1.84,13.62,13.62,0,0,0-5.46,6.7" style="fill:#455a64"></path><path d="M400.11,155.48s4.72-32.25,9.95-50,10.3-38,10.3-38l2.06.56s-11,35.13-15.34,57-2.87,31.61-2.87,31.61l-4.1-1.07" style="fill:#455a64"></path><path d="M445.28,35.32a1.82,1.82,0,0,1-.22.33l-.68.91c-.6.77-1.45,1.91-2.49,3.33-2.08,2.83-4.83,6.83-7.57,11.43s-4.93,8.94-6.42,12.12c-.75,1.59-1.34,2.88-1.74,3.78-.19.42-.34.76-.47,1a1.51,1.51,0,0,1-.18.35,1.8,1.8,0,0,1,.12-.37c.1-.28.24-.63.41-1.06.35-.92.91-2.23,1.63-3.83a122.44,122.44,0,0,1,14-23.6c1.06-1.4,1.95-2.52,2.58-3.27.3-.35.54-.64.74-.86S445.27,35.31,445.28,35.32Z" style="fill:#455a64"></path><path d="M416.9,83.81a26.16,26.16,0,0,1-5.34-25c1.79-6.16,5.69-11.46,9.75-16.42a2.46,2.46,0,0,1,1.3-1,2.31,2.31,0,0,1,2,1c4.44,5,5.72,12.18,5.4,18.88a32.4,32.4,0,0,1-3.05,12.95,22,22,0,0,1-10,9.59" style="fill:#455a64"></path><path d="M416.9,83.81a2.15,2.15,0,0,1,.1-.38c.09-.28.2-.63.34-1.05.31-.91.73-2.24,1.21-3.89a113.07,113.07,0,0,0,2.93-13.09c.83-5.18,1.32-9.91,1.65-13.33.16-1.68.3-3,.39-4q.08-.68.12-1.11c0-.25.05-.38.07-.38a2,2,0,0,1,0,.39c0,.29,0,.66,0,1.11-.05,1-.14,2.35-.28,4.06-.27,3.43-.71,8.17-1.56,13.37a97,97,0,0,1-3,13.1c-.52,1.65-1,3-1.32,3.86-.16.42-.3.76-.4,1A1.39,1.39,0,0,1,416.9,83.81Z" style="fill:#263238"></path><g style="opacity:0.2"><path d="M408.86,120.44a32.23,32.23,0,0,1,15.54,3.11,97.07,97.07,0,0,1,13.81,8.1c.41-3.44-1.6-6.66-3.52-9.55a41.26,41.26,0,0,0-4.74-6.23,13.77,13.77,0,0,0-6.62-4,11.73,11.73,0,0,0-9,1.84,13.62,13.62,0,0,0-5.46,6.7"></path></g><path d="M432.18,146.71s-.1-.07-.27-.22-.43-.39-.72-.65c-.61-.58-1.49-1.43-2.61-2.44-.55-.51-1.17-1.06-1.85-1.63s-1.39-1.19-2.17-1.81a38.37,38.37,0,0,0-5.32-3.65,13.1,13.1,0,0,0-6.08-1.82,19.78,19.78,0,0,0-2.81.07,14.34,14.34,0,0,0-2.39.51,13.8,13.8,0,0,0-3.22,1.46c-.71.44-1.08.73-1.1.71s.08-.09.25-.24a8.91,8.91,0,0,1,.78-.59,13,13,0,0,1,3.22-1.58,13.45,13.45,0,0,1,2.42-.56,17.77,17.77,0,0,1,2.86-.1,13.27,13.27,0,0,1,6.24,1.83,36.48,36.48,0,0,1,5.36,3.7c.77.64,1.5,1.25,2.16,1.85s1.27,1.14,1.82,1.67c1.1,1,1.95,1.91,2.54,2.52l.67.7A2.07,2.07,0,0,1,432.18,146.71Z" style="fill:#455a64"></path><path d="M393.55,135.73a2.16,2.16,0,0,1,.55.33,14.51,14.51,0,0,1,1.37,1.1,19.81,19.81,0,0,1,3.69,4.48,19.42,19.42,0,0,1,2.21,5.35,14.52,14.52,0,0,1,.32,1.73,2,2,0,0,1,0,.65c-.06,0-.2-.9-.6-2.31a21.83,21.83,0,0,0-5.83-9.72C394.25,136.32,393.51,135.78,393.55,135.73Z" style="fill:#455a64"></path><path d="M381,97.22a2.1,2.1,0,0,1,.37.23l1,.72,1.62,1.16c.64.45,1.3,1,2.06,1.66a57.74,57.74,0,0,1,10.28,11.3,62.67,62.67,0,0,1,4.24,7.28,65.57,65.57,0,0,1,2.7,6.34c.67,1.84,1.15,3.35,1.47,4.39.16.49.28.89.38,1.2a2.5,2.5,0,0,1,.11.43,3.21,3.21,0,0,1-.18-.4c-.1-.27-.26-.67-.44-1.19-.36-1-.87-2.52-1.57-4.35s-1.62-4-2.76-6.27a65.22,65.22,0,0,0-4.24-7.23A60.89,60.89,0,0,0,386,101.18c-.75-.62-1.4-1.23-2-1.69l-1.58-1.21-1-.77A2,2,0,0,1,381,97.22Z" style="fill:#455a64"></path><path d="M424.64,119a3.6,3.6,0,0,1-.73-.31l-.84-.4c-.32-.15-.72-.26-1.14-.43a12.36,12.36,0,0,0-6.91-.48,12,12,0,0,0-3.59,1.4,14.36,14.36,0,0,0-2.57,1.85,21.5,21.5,0,0,0-2,2.15,2.82,2.82,0,0,1,.4-.69,10.84,10.84,0,0,1,1.42-1.64,13.14,13.14,0,0,1,2.58-2A12,12,0,0,1,422,117.6c.42.18.82.31,1.14.49l.81.45A3.48,3.48,0,0,1,424.64,119Z" style="fill:#455a64"></path><path d="M443.64,87.63a3,3,0,0,1-.42.12L442,88c-1.06.25-2.59.62-4.47,1.14s-4.1,1.2-6.51,2.1a47.75,47.75,0,0,0-7.58,3.49A16,16,0,0,0,420,97.36c-.95,1-1.86,2-2.71,3a65.45,65.45,0,0,0-4.3,5.32,37.83,37.83,0,0,0-2.44,3.9c-.53,1-.77,1.51-.8,1.5a2,2,0,0,1,.15-.42c.11-.26.28-.65.52-1.14a33.38,33.38,0,0,1,2.37-4,59,59,0,0,1,4.25-5.39c.85-1,1.76-2,2.71-3a16.47,16.47,0,0,1,3.49-2.65A46.25,46.25,0,0,1,430.9,91c2.43-.88,4.67-1.53,6.55-2s3.44-.82,4.51-1l1.24-.23Z" style="fill:#455a64"></path><path d="M408.58,115.48a3.13,3.13,0,0,1,0-.85c0-.62,0-1.4,0-2.33a64.41,64.41,0,0,0-.37-7.65,63.69,63.69,0,0,0-1.36-7.54c-.21-.9-.38-1.66-.52-2.26a4.9,4.9,0,0,1-.16-.85,3.67,3.67,0,0,1,.29.81c.16.53.38,1.29.64,2.24a49.51,49.51,0,0,1,1.73,15.26c0,1-.09,1.77-.14,2.32A4.62,4.62,0,0,1,408.58,115.48Z" style="fill:#455a64"></path><path d="M412.33,93.28a26.81,26.81,0,0,0-1-11.11A35.27,35.27,0,0,0,391.39,60Q399,78.32,406.55,96.67l1.64,6.34A17,17,0,0,0,412.33,93.28Z" style="fill:#455a64"></path><g style="opacity:0.2"><path d="M412.33,93.28a26.81,26.81,0,0,0-1-11.11A35.27,35.27,0,0,0,391.39,60Q399,78.32,406.55,96.67l1.64,6.34A17,17,0,0,0,412.33,93.28Z"></path></g></g><g id="freepik--portal-1--inject-102"><ellipse cx="191.75" cy="409.91" rx="29.02" ry="45.18" transform="translate(-233.48 255.06) rotate(-44.92)" style="fill:#263238"></ellipse><path d="M177.55,424.3c-16.08-16.08-21.75-37-14.07-49.21a19.13,19.13,0,0,0-3.67,2.87c-11.32,11.36-6.19,34.86,11.45,52.51s41.11,22.74,52.42,11.39a18,18,0,0,0,2.62-3.29C214.1,445.92,193.46,440.21,177.55,424.3Z" style="fill:#455a64"></path><path d="M195.54,402.62l14.24-15.17,1.7,1.69s-12,14-12.25,17.35Z" style="fill:#455a64"></path><polygon points="172.32 393.88 152.81 423.01 182.37 452.58 211.75 430.17 172.32 393.88" style="fill:#0369A1"></polygon><path d="M182.56,452.42c-2.67,2.62-11.38-1.94-19.46-10.18s-12.45-17-9.78-19.66,11.38,1.94,19.46,10.18S185.24,449.8,182.56,452.42Z" style="fill:#0369A1"></path><g style="opacity:0.30000000000000004"><path d="M182.56,452.42c-2.67,2.62-11.38-1.94-19.46-10.18s-12.45-17-9.78-19.66,11.38,1.94,19.46,10.18S185.24,449.8,182.56,452.42Z"></path></g><path d="M212.63,432.4c-2.44,2.22-14.79.32-28.27-12.08s-21.11-21.73-14.24-29c5.65-6,16.93-1.43,30.41,11S220.65,425.1,212.63,432.4Z" style="fill:#0369A1"></path><path d="M182.37,452.58a5.75,5.75,0,0,1,.48-.41l1.41-1.15,5.41-4.3,19.19-15.09,0,0a3.22,3.22,0,0,0,.42-2.74,12.6,12.6,0,0,0-1-2.95,35,35,0,0,0-3.43-5.64,83.73,83.73,0,0,0-21.65-20,37.15,37.15,0,0,0-6.36-3.2,14.37,14.37,0,0,0-3.24-.85,3.45,3.45,0,0,0-2.9.63l0,0L157.8,415.86l-3.66,5.3-1,1.39a3.58,3.58,0,0,1-.36.46,3.55,3.55,0,0,1,.3-.5l.92-1.43,3.54-5.37,12.73-19h0l0,0a2.76,2.76,0,0,1,1.56-.77,5.83,5.83,0,0,1,1.72,0,15.36,15.36,0,0,1,3.36.86,37.38,37.38,0,0,1,6.45,3.23A83.1,83.1,0,0,1,205.22,420a35.85,35.85,0,0,1,3.47,5.73,13.56,13.56,0,0,1,1,3.07,3.64,3.64,0,0,1-.55,3.14h0l0,0-19.31,14.94-5.49,4.19-1.46,1.1A3.5,3.5,0,0,1,182.37,452.58Z" style="fill:#263238"></path></g><g id="freepik--Texts--inject-102"><path d="M273,391.18V396h-17.8V373.85H272.6v4.85H261.42v3.74h9.85v4.69h-9.85v4.05Z" style="fill:#263238"></path><path d="M286.19,390.14h-3.43V396h-6.27V373.85h10.14c6.05,0,9.85,3.14,9.85,8.21a7.35,7.35,0,0,1-4.34,7l4.78,7h-6.71Zm.06-11.34h-3.49v6.49h3.49c2.6,0,3.89-1.2,3.89-3.23S288.85,378.8,286.25,378.8Z" style="fill:#263238"></path><path d="M309.62,390.14H306.2V396h-6.27V373.85h10.14c6.05,0,9.85,3.14,9.85,8.21a7.35,7.35,0,0,1-4.34,7l4.78,7h-6.71Zm.07-11.34H306.2v6.49h3.49c2.6,0,3.89-1.2,3.89-3.23S312.29,378.8,309.69,378.8Z" style="fill:#263238"></path><path d="M322.23,384.94c0-6.65,5.23-11.53,12.32-11.53s12.33,4.88,12.33,11.53-5.23,11.53-12.33,11.53S322.23,391.59,322.23,384.94Zm18.31,0c0-3.83-2.63-6.34-6-6.34s-6,2.51-6,6.34,2.62,6.34,6,6.34S340.54,388.77,340.54,384.94Z" style="fill:#263238"></path><path d="M359.86,390.14h-3.42V396h-6.27V373.85H360.3c6.05,0,9.86,3.14,9.86,8.21a7.37,7.37,0,0,1-4.34,7l4.78,7h-6.72Zm.06-11.34h-3.48v6.49h3.48c2.6,0,3.9-1.2,3.9-3.23S362.52,378.8,359.92,378.8Z" style="fill:#263238"></path><path d="M412,382.06c0,5-3.8,8.17-9.85,8.17h-3.87V396H392V373.85h10.14C408.23,373.85,412,377,412,382.06Zm-6.34,0c0-2.06-1.29-3.26-3.89-3.26h-3.49v6.49h3.49C404.4,385.29,405.69,384.09,405.69,382.06Z" style="fill:#263238"></path><path d="M428.82,391.72h-9.38L417.7,396h-6.4l9.79-22.18h6.17L437.08,396h-6.52ZM427,387.1l-2.85-7.1-2.85,7.1Z" style="fill:#263238"></path><path d="M453.4,384.47h5.54v9.18a16.52,16.52,0,0,1-9.31,2.82c-7.07,0-12.23-4.78-12.23-11.53s5.16-11.53,12.35-11.53c4.15,0,7.51,1.43,9.7,4.06l-4,3.61a6.93,6.93,0,0,0-5.39-2.48,6.34,6.34,0,0,0-.06,12.68,8.09,8.09,0,0,0,3.39-.73Z" style="fill:#263238"></path><path d="M480.73,391.18V396h-17.8V373.85h17.39v4.85H469.14v3.74H479v4.69h-9.85v4.05Z" style="fill:#263238"></path><path d="M271.94,322.7H218.21V296.38L269.39,171.9h30.7V296.38H313.4V322.7H300.09v33.42H271.94Zm0-26.32V224.53h-.51L243.8,296.38Z" style="fill:#0369A1"></path><g style="opacity:0.30000000000000004"><path d="M271.94,322.7H218.21V296.38L269.39,171.9h30.7V296.38H313.4V322.7H300.09v33.42H271.94Zm0-26.32V224.53h-.51L243.8,296.38Z"></path></g><path d="M259.13,322.7H205.4V296.38L256.57,171.9h30.71V296.38h13.3V322.7h-13.3v33.42H259.13Zm0-26.32V224.53h-.51L231,296.38Z" style="fill:#0369A1"></path><path d="M335.89,346.65q-11-12.11-11-34.22V215.59q0-22.11,11-34.22t31.73-12.1q20.73,0,31.73,12.1t11,34.22v96.84q0,22.11-11,34.22t-31.73,12.1Q346.89,358.75,335.89,346.65Zm46.31-32.37V213.74q0-18.15-14.58-18.15T353,213.74V314.28q0,18.15,14.59,18.15T382.2,314.28Z" style="fill:#0369A1"></path><g style="opacity:0.30000000000000004"><path d="M399.35,181.37q-11-12.09-31.73-12.1t-31.73,12.1q-11,12.12-11,34.22v96.84q0,22.11,11,34.22t31.73,12.1q20.73,0,31.73-12.1t11-34.22V215.59Q410.35,193.48,399.35,181.37ZM382.2,314.28q0,18.15-14.58,18.15c-9.72,0-14.59-7.59-14.59-18.15V213.74c0-11,4.87-18.15,14.59-18.15s14.58,6,14.58,18.15Z"></path></g><path d="M323.08,346.65q-11-12.11-11-34.22V215.59q0-22.11,11-34.22t31.72-12.1q20.73,0,31.73,12.1t11,34.22v96.84q0,22.11-11,34.22t-31.73,12.1Q334.09,358.75,323.08,346.65Zm46.31-32.38V213.74q0-18.15-14.59-18.15t-14.58,18.15V314.27q0,18.17,14.58,18.16T369.39,314.27Z" style="fill:#0369A1"></path><path d="M473.2,322.7H419.47V296.38L470.64,171.9h30.71V296.38h13.3V322.7h-13.3v33.42H473.2Zm0-26.32V224.54h-.51l-27.64,71.84Z" style="fill:#0369A1"></path><g style="opacity:0.30000000000000004"><path d="M473.2,322.7H419.47V296.38L470.64,171.9h30.71V296.38h13.3V322.7h-13.3v33.42H473.2Zm0-26.32V224.54h-.51l-27.64,71.84Z"></path></g><path d="M460.39,322.7H406.65V296.38L457.83,171.9h30.7V296.38h13.31V322.7H488.53v33.42H460.39Zm0-26.32V224.53h-.52l-27.63,71.85Z" style="fill:#0369A1"></path></g></svg>